<svg xmlns="http://www.w3.org/2000/svg" width="15.604" height="15.574" viewBox="0 0 15.604 15.574">
  <path id="Path_2" data-name="Path 2" d="M24.277,15.574q-1.643,0-2.563-.03a9.244,9.244,0,0,1-1.414-.129,2.957,2.957,0,0,1-.624-.167q-.129-.068-.418-.266a2,2,0,0,0-.829-.3,18.649,18.649,0,0,0-2-.205.508.508,0,0,1-.38-.183q-.03-.046-.122-.2t-.259-.509a7.638,7.638,0,0,1-.312-.783,6.921,6.921,0,0,1-.251-1.065A7.85,7.85,0,0,1,15,10.448a6.434,6.434,0,0,1,.745-3.407.484.484,0,0,1,.426-.228,4.224,4.224,0,0,0,2.806-1.551,13.142,13.142,0,0,0,2.639-4.213,1.528,1.528,0,0,0,.1-.213q.068-.167.084-.213a1.476,1.476,0,0,1,.084-.175A.5.5,0,0,1,22,.281q.053-.038.144-.114a.458.458,0,0,1,.19-.1q.1-.023.243-.046A2.111,2.111,0,0,1,22.909,0a1.445,1.445,0,0,1,.563.122A2.063,2.063,0,0,1,24,.449a1.8,1.8,0,0,1,.4.464,2.9,2.9,0,0,1,.335,1.354,9.11,9.11,0,0,1-.053,1.643,14.081,14.081,0,0,1-.266,1.46q2.707-.015,3.681-.015a2.123,2.123,0,0,1,1.452.487,1.663,1.663,0,0,1,.57,1.278,2.512,2.512,0,0,1-.137,1.019,3.023,3.023,0,0,1,.433.54,1.28,1.28,0,0,1,.19.631,2.091,2.091,0,0,1-.7,1.46q.015.03.061.144t.068.19a1.251,1.251,0,0,1,.038.19,1.669,1.669,0,0,1,.015.221A1.927,1.927,0,0,1,29.114,13a2.4,2.4,0,0,1-.015.9Q28.733,15.574,24.277,15.574ZM16.688,13.49a7.161,7.161,0,0,1,3.163.7,1.583,1.583,0,0,0,.426.243,6.507,6.507,0,0,0,1.1.114q.913.053,2.9.053.624,0,1.133-.03t1.179-.106a3.409,3.409,0,0,0,1.08-.274.808.808,0,0,0,.487-.5A.8.8,0,0,0,27.867,13a.475.475,0,0,1,0-.373.468.468,0,0,1,.243-.266h.015l.183-.076a3,3,0,0,0,.312-.167,1.216,1.216,0,0,0,.342-.3.659.659,0,0,0,.152-.342.808.808,0,0,0-.008-.114q-.008-.053-.015-.1a.322.322,0,0,0-.03-.091l-.038-.076-.038-.061-.038-.053-.03-.038-.023-.03-.008-.015a.359.359,0,0,1-.076-.167.551.551,0,0,1,0-.183.467.467,0,0,1,.068-.175.587.587,0,0,1,.129-.144,1.185,1.185,0,0,0,.2-.129,1.534,1.534,0,0,0,.266-.312.792.792,0,0,0,.16-.456q-.015-.38-.578-.715a.591.591,0,0,1-.152-.144.6.6,0,0,1-.091-.19.364.364,0,0,1-.008-.129.664.664,0,0,1,.03-.137.454.454,0,0,1,.068-.129.249.249,0,0,0,.03-.038q.015-.023.061-.114a1.665,1.665,0,0,0,.076-.175,1.324,1.324,0,0,0,.053-.205,1.241,1.241,0,0,0,.023-.228A.855.855,0,0,0,29,6.677a.656.656,0,0,0-.335-.251,1.815,1.815,0,0,0-.327-.084,1.96,1.96,0,0,0-.243-.015H24.536l-.821.015a.5.5,0,0,1-.122-.015.447.447,0,0,1-.114-.046.685.685,0,0,1-.1-.068.3.3,0,0,1-.076-.1.48.48,0,0,1-.046-.456,9.707,9.707,0,0,0,.388-1.536,8.867,8.867,0,0,0,.137-1.6,2.255,2.255,0,0,0-.221-1.11q-.015-.03-.061-.106T23.441,1.2a.377.377,0,0,0-.068-.084.347.347,0,0,0-.106-.076A.99.99,0,0,0,23.121,1a.884.884,0,0,0-.213-.023.164.164,0,0,0-.091.03.831.831,0,0,0-.137.137,1.086,1.086,0,0,0-.167.289,13.924,13.924,0,0,1-2.829,4.509,5.45,5.45,0,0,1-3.209,1.833q-.122.274-.213.548a6.264,6.264,0,0,0-.19.867,7.679,7.679,0,0,0-.1,1.262,6.85,6.85,0,0,0,.137,1.361,7.36,7.36,0,0,0,.281,1.065A3.047,3.047,0,0,0,16.688,13.49Z" transform="translate(-15)" fill="#999"/>
</svg>
