<?xml version="1.0" encoding="utf-8"?>
<!-- Generator: Adobe Illustrator 23.0.1, SVG Export Plug-In . SVG Version: 6.00 Build 0)  -->
<svg version="1.1" id="Layer_1" xmlns="http://www.w3.org/2000/svg" xmlns:xlink="http://www.w3.org/1999/xlink" x="0px" y="0px"
	 width="188" height="40" viewBox="0 0 188 40" style="enable-background:new 0 0 188 40;" xml:space="preserve">
<style type="text/css">
	.st0{fill:none;stroke:#FFFFFF;stroke-width:2.1807;stroke-miterlimit:10;}
	.st1{fill:none;stroke:#FFFFFF;stroke-width:2.1807;stroke-linecap:round;stroke-miterlimit:10;}
	.st2{fill:#FEE301;}
	.st3{fill:#FFFFFF;}
</style>
<g>
	<path class="st0" d="M2.9,23.4C2,17.9,4.9,8.7,16,13.3c3.6-1.8,15.6-1.6,14.3,8.8c-1.4,10.6-11.7,17.8-14.4,13.8
		C11.4,40.3,4.2,31,2.9,23.4z"/>
	<path class="st1" d="M6.2,20.5c0.2-2.7,2.7-5.2,5.8-4.7"/>
	<path class="st1" d="M16.1,13.4c0.5-3.3-0.2-7.5-2-9.3"/>
	<path class="st0" d="M16.3,10.2c-0.3-6,8-9.2,12-4.8C28.3,8.7,18.4,11.4,16.3,10.2z"/>
	<path class="st1" d="M7.7,26c0,0-0.8-1.3-0.9-2.3"/>
</g>
<g>
	<path class="st2" d="M60.7,18.7c0,2.7-0.5,5-1.4,7c-0.9,2-2.3,3.6-4,4.7c-1.8,1.1-3.8,1.6-6,1.6c-2.2,0-4.2-0.5-6-1.6
		c-1.8-1.1-3.1-2.6-4.1-4.6c-1-2-1.5-4.3-1.5-6.9v-1.3c0-2.7,0.5-5,1.4-7s2.3-3.6,4.1-4.7s3.8-1.6,6-1.6c2.3,0,4.3,0.5,6,1.6
		s3.1,2.6,4.1,4.7s1.4,4.4,1.4,7V18.7z M55,17.5c0-2.8-0.5-5-1.5-6.5c-1-1.5-2.5-2.2-4.4-2.2c-1.9,0-3.3,0.7-4.3,2.2
		c-1,1.5-1.5,3.6-1.5,6.4v1.3c0,2.8,0.5,4.9,1.5,6.4c1,1.5,2.5,2.3,4.4,2.3c1.9,0,3.3-0.7,4.3-2.2c1-1.5,1.5-3.6,1.5-6.4V17.5z"/>
	<path class="st3" d="M82.5,21.8c0,3.1-0.7,5.6-2.1,7.5C79,31.1,77.1,32,74.7,32c-2,0-3.7-0.7-4.9-2.1v9.5h-5.4V11.5h5l0.2,2
		c1.3-1.6,3-2.3,5.1-2.3c2.5,0,4.4,0.9,5.8,2.8c1.4,1.8,2.1,4.4,2.1,7.6V21.8z M77.1,21.4c0-1.9-0.3-3.3-1-4.3
		c-0.7-1-1.6-1.5-2.9-1.5c-1.7,0-2.8,0.6-3.5,1.9v8.2c0.7,1.3,1.8,2,3.5,2C75.8,27.7,77.1,25.6,77.1,21.4z"/>
	<path class="st3" d="M99.5,15.9h-8.3v15.8h-5.4V11.5h13.7V15.9z"/>
	<path class="st3" d="M113.5,31.7c-0.2-0.5-0.4-1.1-0.5-1.8c-1.3,1.5-3,2.2-5.1,2.2c-2,0-3.6-0.6-4.9-1.7c-1.3-1.1-1.9-2.6-1.9-4.3
		c0-2.1,0.8-3.8,2.4-4.9c1.6-1.1,3.9-1.7,6.9-1.7h2.5v-1.2c0-0.9-0.2-1.7-0.7-2.2c-0.5-0.6-1.2-0.8-2.3-0.8c-0.9,0-1.6,0.2-2.1,0.7
		c-0.5,0.4-0.8,1-0.8,1.8h-5.4c0-1.2,0.4-2.2,1.1-3.2s1.7-1.8,3.1-2.3c1.3-0.6,2.8-0.8,4.4-0.8c2.5,0,4.5,0.6,5.9,1.9s2.2,3,2.2,5.3
		V27c0,1.9,0.3,3.4,0.8,4.3v0.3H113.5z M109,27.9c0.8,0,1.5-0.2,2.2-0.5s1.2-0.8,1.5-1.4v-3.5h-2c-2.7,0-4.1,0.9-4.3,2.8l0,0.3
		c0,0.7,0.2,1.2,0.7,1.7C107.6,27.7,108.2,27.9,109,27.9z"/>
	<path class="st3" d="M139.7,31.7h-5.4V24h-6.7v7.7h-5.4V11.5h5.4v8.1h6.7v-8.1h5.4V31.7z"/>
	<path class="st3" d="M156,11.5h5.4v20.1H156V19.2l-6.7,12.4h-5.4V11.5h5.4V24L156,11.5z"/>
	<path class="st3" d="M173.4,24.2h-2.2v7.4h-5.4V11.5h5.4v7.6h1.9l4.4-7.6h6.8l-6.6,9.6l7.2,10.6h-7.2L173.4,24.2z"/>
</g>
</svg>
