<svg xmlns="http://www.w3.org/2000/svg" width="16" height="15.965" viewBox="0 0 16 15.965">
  <path id="Path_4" data-name="Path 4" d="M15.542,3a1.1,1.1,0,0,1,.344.047.914.914,0,0,1,.039.235,2.3,2.3,0,0,1-.016.36,1.3,1.3,0,0,1-.172.485,2.373,2.373,0,0,1-.4.517L11.723,8.261l.031.438q.063,1.19.25,4.07.141,2.52.157,2.6a.269.269,0,0,1-.063.172q-.11.11-.282.313t-.376.423q-.923-2.457-1.534-4.179l-.548-1.471L8.248,11.736,6.213,13.692l-.3.3v.391q-.016.3,0,1.409v.845l.016.016.031.016q-.094-.157-.125-.219l-.094-.141q-.908-1.44-1.064-1.706l-.141-.2-.2-.141q-1.064-.642-2.113-1.315.016,0,.031.031l.016.016H3.325L3.474,13,3.638,13h.9l.407-.016.282-.282L7.2,10.671,8.311,9.56,6.839,9.028Q5.133,8.4,2.629,7.463q.219-.219.415-.391t.321-.266l.11-.063h.031q.11,0,2.817.172,2.958.2,3.9.25l.454.031L14.29,3.581A1.75,1.75,0,0,1,15.542,3Zm0-1a2.581,2.581,0,0,0-.994.211,2.991,2.991,0,0,0-.963.665l-3.3,3.287L8.9,6.077l-1.761-.11q-.877-.055-1.69-.11T4.108,5.772q-.524-.031-.556-.031H3.474a1.287,1.287,0,0,0-.2.016,1.238,1.238,0,0,0-.258.078,1.016,1.016,0,0,0-.3.188L1.58,7.056a.742.742,0,0,0-.25.642.587.587,0,0,0,.407.5Q2.723,8.59,6.5,9.967L4.523,12H4.21q-.329,0-1.041-.008L2.3,11.986H2.073L2,11.994l-.1.023-.125.055-.157.086-.18.117-.211.164-.047.047a.8.8,0,0,0-.235.5.521.521,0,0,0,.219.454q.344.282,2.661,1.675.172.282,1.143,1.816.438.72.47.767a.54.54,0,0,0,.454.266H5.9a.779.779,0,0,0,.548-.266q.11-.125.2-.243a1.506,1.506,0,0,0,.133-.211l.078-.157.039-.133.016-.1v-.078L6.9,16.729q.016-.157.008-1.08t.008-1.237L8.952,12.44q.36.986,1.017,2.77t.736,1.957a.587.587,0,0,0,.485.407h.078a.674.674,0,0,0,.29-.07.98.98,0,0,0,.274-.2q.078-.078.211-.219t.407-.446q.274-.305.415-.477a1.158,1.158,0,0,0,.282-.845q0-.031-.07-1.283T12.9,11.1q-.1-1.683-.149-2.45l3.3-3.3a3.411,3.411,0,0,0,.634-.9,2.284,2.284,0,0,0,.243-.884,2.52,2.52,0,0,0-.07-.736.973.973,0,0,0-.258-.485A1.451,1.451,0,0,0,15.542,2Z" transform="translate(-0.938 -2)" fill="#999"/>
</svg>
