<svg xmlns="http://www.w3.org/2000/svg" width="16" height="16" viewBox="0 0 16 16">
  <path id="Path_3" data-name="Path 3" d="M16,6.5V1.219a1.173,1.173,0,0,0-.359-.859A1.173,1.173,0,0,0,14.781,0H9.391A1.669,1.669,0,0,0,8.2.328L.3,8.234a.979.979,0,0,0-.3.719.95.95,0,0,0,.078.383,1.031,1.031,0,0,0,.219.32L6.344,15.7a.928.928,0,0,0,.7.3.979.979,0,0,0,.719-.3L15.672,7.8A1.725,1.725,0,0,0,16,6.578Zm-1.047.594L7.047,15,1,8.953,8.906,1.047a.1.1,0,0,1,.047-.023.329.329,0,0,1,.078-.008.569.569,0,0,0,.094-.008A.619.619,0,0,1,9.227,1h5.555A.214.214,0,0,1,15,1.219v5.3A1.826,1.826,0,0,1,14.953,7.094ZM12,2a1.927,1.927,0,0,0-1.414.586A1.927,1.927,0,0,0,10,4a1.983,1.983,0,0,0,.266,1.008,1.946,1.946,0,0,0,.727.727A1.983,1.983,0,0,0,12,6a1.927,1.927,0,0,0,1.414-.586A1.927,1.927,0,0,0,14,4a1.983,1.983,0,0,0-.266-1.008,1.946,1.946,0,0,0-.727-.727A1.983,1.983,0,0,0,12,2Zm.008,3a.983.983,0,0,1-.711-.289,1,1,0,0,1,0-1.422A.983.983,0,0,1,12.008,3,.987.987,0,0,1,13,4a.987.987,0,0,1-.992,1Z" fill="#999"/>
</svg>
